<svg width="74" height="78" viewBox="0 0 74 78" fill="none" xmlns="http://www.w3.org/2000/svg">
<g filter="url(#filter0_d_45_90)">
<path d="M37 36.9998C38.6958 36.9998 40.1476 36.396 41.3552 35.1884C42.5629 33.9807 43.1667 32.529 43.1667 30.8332C43.1667 29.1373 42.5629 27.6856 41.3552 26.478C40.1476 25.2703 38.6958 24.6665 37 24.6665C35.3042 24.6665 33.8524 25.2703 32.6448 26.478C31.4372 27.6856 30.8333 29.1373 30.8333 30.8332C30.8333 32.529 31.4372 33.9807 32.6448 35.1884C33.8524 36.396 35.3042 36.9998 37 36.9998ZM37 67.8332C28.7264 60.7929 22.5469 54.2537 18.4615 48.2155C14.376 42.1773 12.3333 36.5887 12.3333 31.4498C12.3333 23.7415 14.8128 17.6005 19.7719 13.0269C24.7309 8.45331 30.4736 6.1665 37 6.1665C43.5264 6.1665 49.2691 8.45331 54.2281 13.0269C59.1872 17.6005 61.6667 23.7415 61.6667 31.4498C61.6667 36.5887 59.624 42.1773 55.5385 48.2155C51.4531 54.2537 45.2736 60.7929 37 67.8332Z" fill="#1D1B20"/>
</g>
<defs>
<filter id="filter0_d_45_90" x="0" y="0" width="84" height="84" filterUnits="userSpaceOnUse" color-interpolation-filters="sRGB">
<feFlood flood-opacity="0" result="BackgroundImageFix"/>
<feColorMatrix in="SourceAlpha" type="matrix" values="0 0 0 0 0 0 0 0 0 0 0 0 0 0 0 0 0 0 127 0" result="hardAlpha"/>
<feOffset dx="6" dy="6"/>
<feGaussianBlur stdDeviation="2"/>
<feComposite in2="hardAlpha" operator="out"/>
<feColorMatrix type="matrix" values="0 0 0 0 0 0 0 0 0 0 0 0 0 0 0 0 0 0 0.25 0"/>
<feBlend mode="normal" in2="BackgroundImageFix" result="effect1_dropShadow_45_90"/>
<feBlend mode="normal" in="SourceGraphic" in2="effect1_dropShadow_45_90" result="shape"/>
</filter>
</defs>
</svg>
